<?xml version="1.0" encoding="UTF-8"?>
<svg width="44" height="24" version="1.1" viewBox="0 -960 880 480" xmlns="http://www.w3.org/2000/svg">
 <path d="m354.71-506.82 325.25-14.684 79.086-23.067 67.553-77.438 23.067-116.98-74.143-141.7-250.24-50.61z" fill="#212121"/>
 <path d="m240-480c-66.667 0-123.33-23.333-170-70-46.667-46.667-70-103.33-70-170s23.333-123.33 70-170c46.667-46.667 103.33-70 170-70h400c66.667 0 123.33 23.333 170 70s70 103.33 70 170-23.333 123.33-70 170-103.33 70-170 70zm0-60h400c50 0 92.5-17.5 127.5-52.5s52.5-77.5 52.5-127.5-17.5-92.5-52.5-127.5-77.5-52.5-127.5-52.5h-400c-50 0-92.5 17.5-127.5 52.5s-52.5 77.5-52.5 127.5 17.5 92.5 52.5 127.5 77.5 52.5 127.5 52.5z" fill="#212121"/>
 <path d="m354.71-506.82 170.58-424.48" fill="none" stroke="#212121" stroke-width="12.273px"/>
 <g transform="translate(-40.389 -226.02)" fill="#212121" stroke-width="4.936" aria-label="12">
  <path d="m217.4-422.5h-29.789v-81.559q0-3.3742 0.0964-8.2908 0.0964-5.0131 0.28922-10.219 0.19281-5.3023 0.38562-9.5441-1.0605 1.2533-4.3382 4.3382-3.1814 2.9886-5.9771 5.3987l-16.196 13.015-14.364-17.931 45.407-36.152h24.487z"/>
  <path d="m355.16-422.5h-98.526v-20.727l35.381-35.766q10.701-10.99 17.16-18.317 6.5556-7.4232 9.4477-13.497 2.9886-6.0735 2.9886-13.015 0-8.3873-4.7239-12.533-4.6274-4.2418-12.436-4.2418-8.1944 0-15.907 3.7598t-16.1 10.701l-16.196-19.185q6.0735-5.2059 12.822-9.8333 6.8448-4.6275 15.81-7.4232 9.0621-2.8922 21.691-2.8922 13.882 0 23.812 5.0131 10.026 5.0131 15.425 13.69 5.3987 8.5801 5.3987 19.474 0 11.665-4.6274 21.306-4.6275 9.6405-13.497 19.088-8.7729 9.4477-21.209 20.92l-18.124 17.064v1.3497h61.41z"/>
 </g>
 <g transform="translate(-40 -240)" fill="#f9f9f9" stroke-width="4.936" aria-label="24">
  <path d="m696.58-408.52h-98.526v-20.727l35.381-35.766q10.701-10.99 17.16-18.317 6.5556-7.4232 9.4477-13.497 2.9886-6.0735 2.9886-13.015 0-8.3873-4.7239-12.533-4.6274-4.2418-12.436-4.2418-8.1944 0-15.907 3.7598t-16.1 10.701l-16.196-19.185q6.0735-5.2059 12.822-9.8333 6.8448-4.6274 15.81-7.4232 9.0621-2.8922 21.691-2.8922 13.882 0 23.812 5.0131 10.026 5.0131 15.425 13.69 5.3987 8.5801 5.3987 19.474 0 11.665-4.6275 21.306-4.6274 9.6405-13.497 19.088-8.7729 9.4477-21.209 20.92l-18.124 17.064v1.3497h61.41z"/>
  <path d="m812.65-437.73h-16.967v29.211h-29.114v-29.211h-60.157v-20.727l61.796-91.007h27.476v88.596h16.967zm-46.082-23.137v-23.909q0-3.3742 0.0964-8.0016 0.19281-4.6275 0.38562-9.2549t0.38562-8.1944q0.28922-3.6634 0.38562-5.1095h-0.77124q-1.8317 3.9526-3.8562 7.7124-2.0245 3.6634-4.7239 7.7124l-25.837 39.044z"/>
 </g>
</svg>
